<svg width="38" height="23" viewBox="0 0 38 23" fill="none" xmlns="http://www.w3.org/2000/svg">
<path d="M20.3796 0.603022L37.2046 17.4283C37.594 17.8175 37.8086 18.337 37.8086 18.8909C37.8086 19.4448 37.594 19.9643 37.2046 20.3534L35.9658 21.5925C35.1586 22.3987 33.8467 22.3987 33.0408 21.5925L25.9764 14.5282L18.9121 7.46385L4.76782 21.6081C4.37837 21.9973 3.85919 22.2122 3.30559 22.2122C2.75138 22.2122 2.23221 21.9973 1.84244 21.6081L0.603989 20.3691C0.214532 19.9796 -1.90735e-05 19.4605 -1.90735e-05 18.9065C-1.90735e-05 18.3526 0.214532 17.8332 0.603989 17.444L17.4444 0.603022C17.835 0.212951 18.3567 -0.0012963 18.9112 -6.67572e-05C19.4679 -0.0012963 19.9892 0.212951 20.3796 0.603022Z" fill="#5B5B5B"/>
</svg>
