<svg width="23" height="38" viewBox="0 0 23 38" fill="none" xmlns="http://www.w3.org/2000/svg">
<path d="M21.6091 17.429L4.78383 0.604011C4.39468 0.214554 3.8752 0 3.32129 0C2.76738 0 2.2479 0.214554 1.85875 0.604011L0.619688 1.84277C-0.186582 2.64996 -0.186582 3.96188 0.619688 4.76784L14.7483 18.8965L0.604011 33.0408C0.214862 33.4302 0 33.9494 0 34.503C0 35.0572 0.214862 35.5764 0.604011 35.9662L1.84308 37.2046C2.23253 37.5941 2.75171 37.8086 3.30561 37.8086C3.85952 37.8086 4.379 37.5941 4.76815 37.2046L21.6091 20.3642C21.9992 19.9735 22.2135 19.4519 22.2122 18.8974C22.2135 18.3407 21.9992 17.8194 21.6091 17.429Z" fill="#BBB1B1" fill-opacity="0.5"/>
</svg>
