<svg width="33" height="26" viewBox="0 0 33 26" fill="none" xmlns="http://www.w3.org/2000/svg">
<path d="M1.12239 8.35433C1.42512 8.15714 8.32328 3.78655 9.83974 2.83659C11.2644 1.93939 13.7003 0 16.5 0C19.2847 0 21.6972 1.91532 23.1603 2.83659C24.737 3.82429 31.6081 8.17852 31.8711 8.34884C32.2241 8.57752 32.5084 8.86496 32.7036 9.1905C32.8987 9.51605 33 9.87162 33 10.2317V23.5625C33 24.9087 31.6149 26 29.9062 26H3.09375C1.3851 26 0 24.9087 0 23.5625V10.2329C3.8147e-06 9.87396 0.100609 9.51947 0.294632 9.19474C0.488651 8.87 0.771301 8.58303 1.12239 8.35433ZM3.09375 23.2578C3.09375 23.3386 3.13449 23.4161 3.20702 23.4733C3.27954 23.5304 3.3779 23.5625 3.48047 23.5625H29.5195C29.6221 23.5625 29.7205 23.5304 29.793 23.4733C29.8655 23.4161 29.9062 23.3386 29.9062 23.2578V10.377C29.9062 10.2849 29.8537 10.1979 29.7628 10.1401C28.7399 9.48939 22.7507 5.694 21.2315 4.74241C20.0607 4.00562 18.0212 2.4375 16.5 2.4375C14.9729 2.4375 12.8998 4.03046 11.7685 4.74241C10.2491 5.6941 4.25952 9.4901 3.23709 10.1413C3.19229 10.1698 3.15616 10.2059 3.13136 10.2469C3.10655 10.2878 3.0937 10.3327 3.09375 10.3781V23.2578ZM5.15567 13.726C4.88181 13.9879 4.93234 14.3757 5.26814 14.5883C7.13567 15.7706 9.08854 17.0053 9.83974 17.4759C11.3028 18.3972 13.7153 20.3125 16.5 20.3125C19.3006 20.3125 21.7392 18.3708 23.1603 17.4759C23.8872 17.0205 25.8508 15.7791 27.7317 14.5882C28.0675 14.3756 28.118 13.9878 27.8442 13.7259L26.8608 12.785C26.5915 12.5274 26.1094 12.4883 25.7793 12.6973C23.9348 13.8654 22.0046 15.0858 21.2315 15.5701C20.1002 16.282 18.0271 17.875 16.5 17.875C14.9788 17.875 12.9392 16.3069 11.7685 15.5701C10.9954 15.0859 9.06507 13.8654 7.22049 12.6975C6.89036 12.4885 6.40832 12.5276 6.1391 12.7852L5.15567 13.726Z" fill="#178CFF"/>
</svg>
