<svg width="38" height="23" viewBox="0 0 38 23" fill="none" xmlns="http://www.w3.org/2000/svg">
<path d="M20.3796 21.6091L37.2046 4.78383C37.594 4.39468 37.8086 3.8752 37.8086 3.32129C37.8086 2.76738 37.594 2.2479 37.2046 1.85875L35.9658 0.619688C35.1586 -0.186582 33.8467 -0.186582 33.0408 0.619688L18.9121 14.7483L4.76782 0.604011C4.37836 0.214862 3.85919 0 3.30559 0C2.75138 0 2.2322 0.214862 1.84244 0.604011L0.603989 1.84308C0.214531 2.23253 -1.90735e-05 2.75171 -1.90735e-05 3.30561C-1.90735e-05 3.85952 0.214531 4.379 0.603989 4.76815L17.4444 21.6091C17.835 21.9992 18.3567 22.2135 18.9112 22.2122C19.4679 22.2135 19.9892 21.9992 20.3796 21.6091Z" fill="#5B5B5B"/>
</svg>
