<svg width="23" height="38" viewBox="0 0 23 38" fill="none" xmlns="http://www.w3.org/2000/svg">
<path d="M0.603266 17.429L17.4286 0.604011C17.8177 0.214554 18.3372 0 18.8911 0C19.445 0 19.9645 0.214554 20.3536 0.604011L21.5927 1.84277C22.399 2.64996 22.399 3.96188 21.5927 4.76784L7.46409 18.8965L21.6084 33.0408C21.9975 33.4302 22.2124 33.9494 22.2124 34.503C22.2124 35.0572 21.9975 35.5764 21.6084 35.9662L20.3693 37.2046C19.9799 37.5941 19.4607 37.8086 18.9068 37.8086C18.3529 37.8086 17.8334 37.5941 17.4443 37.2046L0.603266 20.3642C0.213194 19.9735 -0.00105286 19.4519 0.000177383 18.8974C-0.00105286 18.3407 0.213194 17.8194 0.603266 17.429Z" fill="#BBB1B1" fill-opacity="0.5"/>
</svg>
